<svg id="SvgjsSvg1017" xmlns="http://www.w3.org/2000/svg" version="1.1" xmlns:xlink="http://www.w3.org/1999/xlink" xmlns:svgjs="http://svgjs.com/svgjs" width="44" height="40" viewBox="0 0 44 40"><title>Shape 40</title><desc>Created with Avocode.</desc><defs id="SvgjsDefs1018"></defs><path id="SvgjsPath1019" d="M1017.48 1749.51C1015.26 1749.51 1013.04 1749.52 1010.82 1749.54C1008.6800000000001 1749.56 1006.49 1749.72 1004.35 1749.56C1002.85 1749.45 1001.37 1749.21 999.885 1749.07C997.484 1748.85 995.115 1748.31 992.7189999999999 1748.01C991.2099999999999 1747.82 990.8209999999999 1747.49 990.7589999999999 1746.03C990.728 1745.29 991.2259999999999 1745.01 991.6529999999999 1745.31C992.2399999999999 1745.73 993.036 1745.9299999999998 993.762 1745.8799999999999C994.549 1745.81 995.193 1745.26 996.034 1745.28C996.5939999999999 1745.29 996.941 1746.1 997.098 1746.54C997.0999999999999 1746.55 997.0989999999999 1746.55 997.101 1746.56C997.115 1746.59 997.13 1746.6299999999999 997.144 1746.6599999999999C997.288 1746.9299999999998 997.432 1747.1999999999998 997.617 1747.4299999999998C997.9209999999999 1747.7999999999997 998.381 1748.4299999999998 998.949 1748.2599999999998C999.5369999999999 1748.0799999999997 999.8789999999999 1747.4199999999998 1000.1899999999999 1746.9599999999998C1000.5699999999999 1746.3799999999999 1000.9599999999999 1745.7799999999997 1000.9999999999999 1745.0799999999997C1001.1299999999999 1742.9999999999998 1001.2599999999999 1740.8999999999996 1001.2199999999999 1738.8399999999997C1001.18 1736.9899999999998 1001.17 1735.0899999999997 1001.1299999999999 1733.2399999999998C1001.0799999999999 1731.1999999999998 1000.8799999999999 1729.6699999999998 998.6639999999999 1728.9099999999999C997.8599999999999 1728.6299999999999 997.3009999999998 1728.4499999999998 996.5109999999999 1728.84C995.7429999999998 1729.22 994.9549999999998 1729.56 994.1769999999999 1729.9099999999999C993.8609999999999 1730.06 993.5609999999999 1730.2299999999998 993.252 1730.3899999999999C993.197 1730.4199999999998 992.702 1730.6 992.692 1730.62C993.077 1729.6399999999999 993.017 1728.4799999999998 993.589 1727.57C993.7750000000001 1727.28 994.076 1727.05 994.4290000000001 1726.87C996.5000000000001 1725.83 999.0150000000001 1725.6799999999998 1001.3100000000001 1725.6699999999998C1002.24 1725.6599999999999 1003.2700000000001 1725.82 1004.19 1725.57C1005.1700000000001 1725.3 1004.84 1724.61 1004.2600000000001 1724.01C1003.7400000000001 1723.48 1003.1400000000001 1722.94 1002.3700000000001 1722.74C1001.4100000000001 1722.51 1000.3200000000002 1722.76 999.3760000000001 1722.93C999.0140000000001 1723 997.2970000000001 1723.5800000000002 997.6890000000001 1722.8500000000001C998.3410000000001 1721.65 999.1780000000001 1720.5400000000002 1000.1500000000001 1719.5600000000002C1000.6400000000001 1719.0700000000002 1001.1500000000001 1718.7400000000002 1000.8000000000001 1717.88C1000.45 1717.0200000000002 999.4920000000001 1716.42 998.614 1716.16C998.147 1716.02 997.6360000000001 1715.96 997.154 1716.0600000000002C996.726 1716.15 996.252 1716.4600000000003 996.055 1716.8400000000001C995.906 1717.1200000000001 996.0989999999999 1717.2300000000002 996.3889999999999 1717.3500000000001C996.8949999999999 1717.5700000000002 996.7359999999999 1718.14 996.5799999999999 1718.5600000000002C996.126 1719.8000000000002 995.554 1720.9800000000002 994.8439999999999 1722.1000000000001C994.0799999999999 1723.3000000000002 993.5559999999999 1724.69 992.1289999999999 1725.3700000000001C991.819 1725.5200000000002 991.3699999999999 1725.89 991.2339999999999 1725.7900000000002C990.9189999999999 1725.5800000000002 991.3159999999999 1725.0700000000002 991.4079999999999 1724.8000000000002C991.7319999999999 1723.8700000000001 992.3489999999999 1723.0600000000002 992.7979999999999 1722.1900000000003C993.0889999999999 1721.6200000000003 993.2849999999999 1721.0100000000002 993.2929999999999 1720.3700000000003C993.2959999999999 1720.1500000000003 993.4169999999999 1719.6200000000003 993.2129999999999 1719.4600000000003C992.9659999999999 1719.2600000000002 992.7459999999999 1719.5800000000002 992.6409999999998 1719.8100000000002C992.2909999999998 1720.5700000000002 991.6489999999999 1721.2600000000002 990.9759999999999 1721.4900000000002C990.6109999999999 1721.6100000000001 990.2799999999999 1721.1500000000003 990.0849999999999 1720.9200000000003C989.6099999999999 1720.3700000000003 988.8349999999999 1719.4200000000003 988.055 1719.3000000000004C987.396 1719.1900000000005 987.473 1720.0500000000004 987.3589999999999 1720.4900000000005C986.8389999999999 1722.5000000000005 986.554 1725.0100000000004 988.824 1726.0300000000004C989.6049999999999 1726.3800000000003 989.1179999999999 1726.7200000000005 988.582 1726.9900000000005C985.097 1728.7500000000005 981.625 1730.5400000000004 978.159 1732.3400000000004C978.012 1732.4100000000003 977.576 1732.6200000000003 977.935 1732.8400000000004C979.213 1733.5900000000004 980.016 1735.0100000000004 981.6329999999999 1735.3000000000004C982.084 1735.3900000000003 982.275 1735.4200000000003 982.6099999999999 1734.9700000000005C983.8909999999998 1733.2500000000005 985.4049999999999 1732.0600000000004 987.2509999999999 1730.9100000000005C987.6269999999998 1730.6700000000005 987.9899999999999 1730.4300000000005 988.3539999999998 1730.1800000000005C988.6879999999998 1729.9500000000005 989.9049999999999 1728.8800000000006 990.2009999999998 1729.0700000000006C990.5689999999998 1729.3100000000006 990.3169999999998 1729.9700000000007 990.2119999999998 1730.2700000000007C990.2019999999998 1730.3000000000006 990.1869999999998 1730.3200000000006 990.1699999999997 1730.3400000000006C988.9109999999997 1734.3600000000006 987.7309999999998 1738.3900000000006 987.2859999999997 1742.6100000000006C987.0239999999998 1745.1000000000006 987.3379999999997 1746.1300000000006 989.6769999999997 1747.1500000000005C990.4579999999996 1747.4900000000005 989.3229999999996 1747.5900000000006 989.0509999999997 1747.5700000000006C987.9199999999997 1747.4700000000007 986.7849999999997 1747.4300000000005 985.6499999999997 1747.4000000000005C985.3889999999998 1747.4000000000005 983.6139999999998 1747.5400000000006 983.8929999999998 1747.1300000000006C985.0009999999997 1745.5100000000007 983.8069999999998 1744.7200000000005 982.6449999999998 1744.2300000000005C981.3299999999997 1743.6600000000005 981.2729999999998 1742.9700000000005 981.6569999999997 1741.8100000000004C982.1339999999997 1740.3900000000003 981.6559999999997 1739.3800000000003 980.4959999999998 1738.9200000000003C978.9029999999998 1738.2900000000002 977.2439999999998 1738.6100000000004 975.6149999999998 1738.6400000000003C974.8869999999998 1738.6500000000003 975.5919999999998 1739.5600000000004 975.7629999999998 1739.8500000000004C975.9819999999999 1740.2100000000003 976.7789999999998 1741.4600000000003 977.3119999999998 1741.4000000000003C977.4919999999997 1741.3900000000003 977.9839999999998 1741.3900000000003 978.1799999999998 1741.4000000000003C978.5139999999998 1741.4100000000003 978.9029999999998 1741.4600000000003 979.1109999999999 1741.7500000000002C979.4809999999999 1742.2700000000002 979.5199999999999 1742.9300000000003 979.7059999999999 1743.5400000000002C979.8879999999999 1744.13 980.7639999999999 1744.7400000000002 980.7019999999999 1745.3400000000001C980.5689999999998 1746.6200000000001 978.1449999999999 1747.6000000000001 977.1179999999999 1747.94C976.386 1748.18 975.2669999999999 1747.8300000000002 975.015 1748.76C974.751 1749.73 976.037 1749.92 976.491 1750.57C976.548 1750.6499999999999 976.638 1750.71 976.706 1750.79C977.202 1751.33 977.724 1751.5 978.5360000000001 1751.35C980.9490000000001 1750.9199999999998 983.221 1749.84 985.849 1750.35C988.1080000000001 1750.8 990.4240000000001 1751.1 992.596 1751.79C996.343 1752.98 1000.13 1754.01 1003.95 1754.8999999999999C1005.32 1755.2199999999998 1006.6800000000001 1754.7199999999998 1007.9200000000001 1754.1899999999998C1010.4900000000001 1753.09 1013.19 1752.3099999999997 1015.7600000000001 1751.2099999999998C1016.3500000000001 1750.9599999999998 1017.3300000000002 1750.6899999999998 1017.7800000000001 1750.2399999999998C1018.1700000000001 1749.8599999999997 1018.0100000000001 1749.5099999999998 1017.4800000000001 1749.5099999999998ZM991.848 1734.39C991.871 1734.3100000000002 991.894 1734.2 991.9219999999999 1734.0700000000002C992.05 1733.43 992.2549999999999 1732.3200000000002 992.7689999999999 1732.38C992.9459999999999 1732.41 993.0939999999999 1732.45 993.2829999999999 1732.5200000000002C993.382 1732.5500000000002 993.4809999999999 1732.5700000000002 993.579 1732.5800000000002C994.221 1732.67 994.8389999999999 1732.2 995.318 1731.8500000000001C995.638 1731.6100000000001 996.329 1730.7700000000002 996.711 1730.7700000000002C997.4110000000001 1730.7700000000002 997.284 1733.1200000000001 997.301 1733.5800000000002C997.316 1734.0000000000002 997.431 1734.3400000000001 996.63 1734.1200000000001C996.3629999999999 1734.0400000000002 996.093 1733.98 995.822 1733.93C995.35 1733.8400000000001 994.914 1734.05 994.478 1734.19C994.1869999999999 1734.29 991.906 1735.1100000000001 991.81 1734.72C991.7829999999999 1734.6100000000001 991.8149999999999 1734.5 991.848 1734.39ZM991.179 1740.31C991.422 1740.04 991.6279999999999 1740.1299999999999 991.843 1740.35C992.212 1740.7199999999998 992.331 1740.9399999999998 992.8499999999999 1740.7099999999998C993.3509999999999 1740.4799999999998 993.858 1740.2699999999998 994.3849999999999 1740.11C994.9829999999998 1739.9299999999998 995.6039999999999 1739.9599999999998 996.2109999999999 1739.83C996.5559999999999 1739.77 996.8139999999999 1739.5 996.7399999999999 1739.1299999999999C996.603 1738.4499999999998 995.6979999999999 1738.1499999999999 995.0879999999999 1738.05C994.1399999999999 1737.8899999999999 993.2049999999998 1738.23 992.3309999999999 1738.55C991.8799999999999 1738.71 991.2489999999999 1739.12 991.2009999999999 1738.46C991.1549999999999 1737.8500000000001 991.2979999999999 1737.1100000000001 991.6579999999999 1736.6000000000001C992.0489999999999 1736.0400000000002 992.1809999999999 1736.4900000000002 992.6179999999999 1736.65C992.8689999999999 1736.74 993.1039999999999 1736.7900000000002 993.3269999999999 1736.8000000000002C993.5189999999999 1736.7900000000002 993.7119999999999 1736.7400000000002 993.9049999999999 1736.7000000000003C994.8479999999998 1736.4600000000003 995.6919999999999 1735.8000000000002 996.5069999999998 1735.3100000000002C996.7489999999998 1735.16 996.8699999999999 1734.7100000000003 997.1899999999998 1734.8700000000001C997.6189999999998 1735.0900000000001 997.4489999999998 1736.3300000000002 997.4579999999999 1736.7C997.4859999999999 1737.93 997.4789999999998 1739.16 997.5589999999999 1740.38C997.5939999999998 1740.91 997.7309999999999 1741.43 997.6889999999999 1741.97C997.6299999999999 1742.72 996.8699999999999 1742.5 996.3749999999999 1742.3700000000001C995.5059999999999 1742.15 994.5669999999999 1742.5000000000002 993.7219999999999 1742.72C993.0649999999998 1742.9 992.4119999999999 1743.26 991.7459999999999 1743.3600000000001C991.1239999999999 1743.45 991.1159999999999 1743.18 991.0909999999999 1742.67C991.0679999999999 1742.18 991.0659999999999 1741.7 991.0809999999999 1741.21C991.0879999999999 1741 991.0249999999999 1740.49 991.1789999999999 1740.31ZM977.006 1725.66C977.6909999999999 1726.3500000000001 978.048 1727.1000000000001 976.946 1727.65C976.042 1728.1100000000001 977.243 1728.3100000000002 977.2520000000001 1728.3100000000002C978.378 1728.4600000000003 981.34 1729.0000000000002 981.2450000000001 1727.0700000000002C981.2070000000001 1726.3100000000002 980.7730000000001 1725.8100000000002 980.2770000000002 1725.3000000000002C979.2030000000002 1724.2100000000003 978.0830000000002 1724.4400000000003 976.5390000000001 1724.0000000000002C976.3820000000001 1723.9300000000003 975.6430000000001 1723.6500000000003 975.9870000000001 1724.3900000000003C976.229 1724.9100000000003 976.6200000000001 1725.2800000000004 977.0060000000001 1725.6600000000003Z " fill="#ffffff" fill-opacity="1" transform="matrix(1,0,0,1,-974,-1716)"></path></svg>