<svg id="SvgjsSvg1000" xmlns="http://www.w3.org/2000/svg" version="1.1" xmlns:xlink="http://www.w3.org/1999/xlink" xmlns:svgjs="http://svgjs.com/svgjs" width="34" height="32.98397267572" viewBox="0 0 34 32.98397267572"><title>Shape 43</title><desc>Created with Avocode.</desc><defs id="SvgjsDefs1001"><clipPath id="SvgjsClipPath1010"><path id="SvgjsPath1009" d="M484 5030.99199V4998.00802H518V5030.99199ZM494.005 5014.07L493.99 5025.58C493.99 5026.9 495.072 5027.99 496.386 5027.99H509.064C511.963 5027.99 512.195 5026.09 512.272 5025.46V5025.42L514.0880000000001 5014.42V5014.38C514.0880000000001 5013.06 513.0060000000001 5011.97 511.69200000000006 5011.97H503.07400000000007V5005.2C503.07400000000007 5003.8 502.76500000000004 5002.82 502.10800000000006 5002.36C501.49000000000007 5001.889999999999 500.58500000000004 5001.889999999999 500.00500000000005 5001.929999999999V5006.4C500.00500000000005 5012.129999999999 494.27500000000003 5013.96 494.00500000000005 5014.07ZM487.004 5027.98H491.005V5012.99H487.004Z " fill="#ffffff"></path></clipPath></defs><path id="SvgjsPath1007" d="M500.005 5006.4V5001.929999999999C500.585 5001.889999999999 501.49 5001.889999999999 502.108 5002.36C502.765 5002.82 503.074 5003.799999999999 503.074 5005.2V5011.97H511.692C513.006 5011.97 514.088 5013.06 514.088 5014.38V5014.42L512.2719999999999 5025.42V5025.46C512.1949999999999 5026.09 511.9629999999999 5027.99 509.0639999999999 5027.99H496.3859999999999C495.0719999999999 5027.99 493.9899999999999 5026.9 493.9899999999999 5025.58L494.0049999999999 5014.07C494.27499999999986 5013.96 500.0049999999999 5012.13 500.0049999999999 5006.4ZM487.004 5027.98H491.005V5012.99H487.004Z " fill="#a1adb7" fill-opacity="0" transform="matrix(1,0,0,1,-484,-4998.00801366214)"></path><path id="SvgjsPath1008" d="M500.005 5006.4V5001.929999999999C500.585 5001.889999999999 501.49 5001.889999999999 502.108 5002.36C502.765 5002.82 503.074 5003.799999999999 503.074 5005.2V5011.97H511.692C513.006 5011.97 514.088 5013.06 514.088 5014.38V5014.42L512.2719999999999 5025.42V5025.46C512.1949999999999 5026.09 511.9629999999999 5027.99 509.0639999999999 5027.99H496.3859999999999C495.0719999999999 5027.99 493.9899999999999 5026.9 493.9899999999999 5025.58L494.0049999999999 5014.07C494.27499999999986 5013.96 500.0049999999999 5012.13 500.0049999999999 5006.4ZM487.004 5027.98H491.005V5012.99H487.004Z " fill-opacity="0" fill="#ffffff" stroke-dasharray="0" stroke-linejoin="round" stroke-linecap="round" stroke-opacity="1" stroke="#afbe96" stroke-miterlimit="50" stroke-width="6" clip-path="url(&quot;#SvgjsClipPath1010&quot;)" transform="matrix(1,0,0,1,-484,-4998.00801366214)"></path></svg>