<svg id="SvgjsSvg1000" xmlns="http://www.w3.org/2000/svg" version="1.1" xmlns:xlink="http://www.w3.org/1999/xlink" xmlns:svgjs="http://svgjs.com/svgjs" width="36" height="32" viewBox="0 0 36 32"><title>Shape 44</title><desc>Created with Avocode.</desc><defs id="SvgjsDefs1001"><clipPath id="SvgjsClipPath1010"><path id="SvgjsPath1009" d="M1116.95 5012.15C1116.79 5011.61 1116.3 5011.259999999999 1115.73 5011.219999999999L1105.06 5010.329999999999L1101.21 5000.849999999999C1101.02 5000.3099999999995 1100.53 4999.999999999999 1099.99 4999.999999999999V4999.999999999999C1099.46 4999.999999999999 1098.96 5000.349999999999 1098.77 5000.849999999999L1094.93 5010.329999999999L1084.26 5011.179999999999C1083.69 5011.179999999999 1083.23 5011.57 1083.04 5012.11C1082.8899999999999 5012.65 1083.04 5013.23 1083.5 5013.58L1091.75 5019.9L1088.98 5030.259999999999C1088.83 5030.799999999999 1089.02 5031.379999999999 1089.44 5031.69C1089.8600000000001 5032.04 1090.47 5032.04 1090.93 5031.73L1099.99 5025.78L1108.98 5031.7699999999995C1109.21 5031.919999999999 1109.44 5031.999999999999 1109.71 5031.999999999999C1109.97 5031.999999999999 1110.24 5031.919999999999 1110.47 5031.729999999999C1110.93 5031.379999999998 1111.1200000000001 5030.799999999998 1110.93 5030.299999999998L1108.2 5019.939999999999L1116.49 5013.619999999999C1116.91 5013.269999999999 1117.1 5012.689999999999 1116.95 5012.149999999999Z " fill="#ffffff"></path></clipPath></defs><path id="SvgjsPath1007" d="M1116.95 5012.15C1116.79 5011.61 1116.3 5011.259999999999 1115.73 5011.219999999999L1105.06 5010.329999999999L1101.21 5000.849999999999C1101.02 5000.3099999999995 1100.53 4999.999999999999 1099.99 4999.999999999999V4999.999999999999C1099.46 4999.999999999999 1098.96 5000.349999999999 1098.77 5000.849999999999L1094.93 5010.329999999999L1084.26 5011.179999999999C1083.69 5011.179999999999 1083.23 5011.57 1083.04 5012.11C1082.8899999999999 5012.65 1083.04 5013.23 1083.5 5013.58L1091.75 5019.9L1088.98 5030.259999999999C1088.83 5030.799999999999 1089.02 5031.379999999999 1089.44 5031.69C1089.8600000000001 5032.04 1090.47 5032.04 1090.93 5031.73L1099.99 5025.78L1108.98 5031.7699999999995C1109.21 5031.919999999999 1109.44 5031.999999999999 1109.71 5031.999999999999C1109.97 5031.999999999999 1110.24 5031.919999999999 1110.47 5031.729999999999C1110.93 5031.379999999998 1111.1200000000001 5030.799999999998 1110.93 5030.299999999998L1108.2 5019.939999999999L1116.49 5013.619999999999C1116.91 5013.269999999999 1117.1 5012.689999999999 1116.95 5012.149999999999Z " fill="#a1adb7" fill-opacity="0" transform="matrix(1,0,0,1,-1082,-5000)"></path><path id="SvgjsPath1008" d="M1116.95 5012.15C1116.79 5011.61 1116.3 5011.259999999999 1115.73 5011.219999999999L1105.06 5010.329999999999L1101.21 5000.849999999999C1101.02 5000.3099999999995 1100.53 4999.999999999999 1099.99 4999.999999999999V4999.999999999999C1099.46 4999.999999999999 1098.96 5000.349999999999 1098.77 5000.849999999999L1094.93 5010.329999999999L1084.26 5011.179999999999C1083.69 5011.179999999999 1083.23 5011.57 1083.04 5012.11C1082.8899999999999 5012.65 1083.04 5013.23 1083.5 5013.58L1091.75 5019.9L1088.98 5030.259999999999C1088.83 5030.799999999999 1089.02 5031.379999999999 1089.44 5031.69C1089.8600000000001 5032.04 1090.47 5032.04 1090.93 5031.73L1099.99 5025.78L1108.98 5031.7699999999995C1109.21 5031.919999999999 1109.44 5031.999999999999 1109.71 5031.999999999999C1109.97 5031.999999999999 1110.24 5031.919999999999 1110.47 5031.729999999999C1110.93 5031.379999999998 1111.1200000000001 5030.799999999998 1110.93 5030.299999999998L1108.2 5019.939999999999L1116.49 5013.619999999999C1116.91 5013.269999999999 1117.1 5012.689999999999 1116.95 5012.149999999999Z " fill-opacity="0" fill="#ffffff" stroke-dasharray="0" stroke-linejoin="miter" stroke-linecap="butt" stroke-opacity="1" stroke="#f6a79f" stroke-miterlimit="50" stroke-width="6" clip-path="url(&quot;#SvgjsClipPath1010&quot;)" transform="matrix(1,0,0,1,-1082,-5000)"></path></svg>