<svg xmlns="http://www.w3.org/2000/svg" width="34" height="32.984" viewBox="0 0 34 32.98397267572">
    <title>
        Shape 43
    </title>
    <defs>
        <clipPath id="a">
            <path d="M484 5030.992v-32.984h34v32.984zm10.005-16.922l-.015 11.51c0 1.32 1.082 2.41 2.396 2.41h12.678c2.899 0 3.131-1.9 3.208-2.53v-.04l1.816-11v-.04c0-1.32-1.082-2.41-2.396-2.41h-8.618v-6.77c0-1.4-.309-2.38-.966-2.84-.618-.47-1.523-.47-2.103-.43v4.47c0 5.73-5.73 7.56-6 7.67zm-7.001 13.91h4.001v-14.99h-4.001z" fill="#fff"/>
        </clipPath>
    </defs>
    <path d="M16.005 8.392v-4.47c.58-.04 1.485-.04 2.103.43.657.46.966 1.44.966 2.84v6.77h8.618c1.314 0 2.396 1.09 2.396 2.41v.04l-1.816 11v.04c-.077.63-.309 2.53-3.208 2.53H12.386c-1.314 0-2.396-1.09-2.396-2.41l.015-11.51c.27-.11 6-1.94 6-7.67zM3.004 29.972h4.001v-14.99H3.004z" fill="none"/>
    <path d="M500.005 5006.4v-4.47c.58-.04 1.485-.04 2.103.43.657.46.966 1.44.966 2.84v6.77h8.618c1.314 0 2.396 1.09 2.396 2.41v.04l-1.816 11v.04c-.077.63-.309 2.53-3.208 2.53h-12.678c-1.314 0-2.396-1.09-2.396-2.41l.015-11.51c.27-.11 6-1.94 6-7.67zm-13.001 21.58h4.001v-14.99h-4.001z" fill="none" stroke-dasharray="0" stroke-linejoin="round" stroke-linecap="round" stroke="#afbe96" stroke-miterlimit="50" stroke-width="6" clip-path="url(&quot;#a&quot;)" transform="translate(-484 -4998.008)"/>
</svg>
