<?xml version="1.0" encoding="UTF-8"?><!DOCTYPE svg PUBLIC "-//W3C//DTD SVG 1.1//EN" "http://www.w3.org/Graphics/SVG/1.1/DTD/svg11.dtd"><svg xmlns="http://www.w3.org/2000/svg"><defs>
        <clipPath id="a">
            <path d="M804.08 5007.83l-.644.6-.643-.64c-3.456-3.47-9.083-3.47-12.54 0-1.688 1.69-2.613 3.9-2.613 6.28 0 2.38.925 4.59 2.613 6.28l12.299 12.32.884.85 13.144-13.17c3.456-3.46 3.456-9.1 0-12.56-3.417-3.42-9.044-3.42-12.5.04z"/>
        </clipPath>
    
        <clipPath id="a">
            <path d="M484 5030.992v-32.984h34v32.984zm10.005-16.922l-.015 11.51c0 1.32 1.082 2.41 2.396 2.41h12.678c2.899 0 3.131-1.9 3.208-2.53v-.04l1.816-11v-.04c0-1.32-1.082-2.41-2.396-2.41h-8.618v-6.77c0-1.4-.309-2.38-.966-2.84-.618-.47-1.523-.47-2.103-.43v4.47c0 5.73-5.73 7.56-6 7.67zm-7.001 13.91h4.001v-14.99h-4.001z"/>
        </clipPath>
    
        <clipPath id="a">
            <path d="M1116.95 5012.15c-.16-.54-.65-.89-1.22-.93l-10.67-.89-3.85-9.48c-.19-.54-.68-.85-1.22-.85-.53 0-1.03.35-1.22.85l-3.84 9.48-10.67.85c-.57 0-1.03.39-1.22.93-.15.54 0 1.12.46 1.47l8.25 6.32-2.77 10.36c-.15.54.04 1.12.46 1.43.42.35 1.03.35 1.49.04l9.06-5.95 8.99 5.99c.23.15.46.23.73.23.26 0 .53-.08.76-.27.46-.35.65-.93.46-1.43l-2.73-10.36 8.29-6.32c.42-.35.61-.93.46-1.47z"/>
        </clipPath>
    </defs><symbol id="icon-heart" viewBox="0 0 33 29">
    <title>
        Shape 42
    </title>
    
    <path d="M17.08 2.83l-.644.6-.643-.64c-3.456-3.47-9.083-3.47-12.54 0C1.565 4.48.64 6.69.64 9.07c0 2.38.925 4.59 2.613 6.28l12.299 12.32.884.85L29.58 15.35c3.456-3.46 3.456-9.1 0-12.56-3.417-3.42-9.044-3.42-12.5.04z"/>
    <path d="M804.08 5007.83l-.644.6-.643-.64c-3.456-3.47-9.083-3.47-12.54 0-1.688 1.69-2.613 3.9-2.613 6.28 0 2.38.925 4.59 2.613 6.28l12.299 12.32.884.85 13.144-13.17c3.456-3.46 3.456-9.1 0-12.56-3.417-3.42-9.044-3.42-12.5.04z" stroke-dasharray="0" stroke-miterlimit="50" stroke-width="6" clip-path="url(&quot;#a&quot;)" transform="translate(-787 -5005)"/>
</symbol><symbol id="icon-ierg" viewBox="0 0 44 40">
    <title>
        Shape 40
    </title>
    <path d="M43.48 33.51c-2.22 0-4.44.01-6.66.03-2.14.02-4.33.18-6.47.02-1.5-.11-2.98-.35-4.465-.49-2.401-.22-4.77-.76-7.166-1.06-1.509-.19-1.898-.52-1.96-1.98-.031-.74.467-1.02.894-.72.587.42 1.383.62 2.109.57.787-.07 1.431-.62 2.272-.6.56.01.907.82 1.064 1.26l.003.02c.014.03.029.07.043.1.144.27.288.54.473.77.304.37.764 1 1.332.83.588-.18.93-.84 1.241-1.3.38-.58.77-1.18.81-1.88.13-2.08.26-4.18.22-6.24-.04-1.85-.05-3.75-.09-5.6-.05-2.04-.25-3.57-2.466-4.33-.804-.28-1.363-.46-2.153-.07-.768.38-1.556.72-2.334 1.07-.316.15-.616.32-.925.48-.055.03-.55.21-.56.23.385-.98.325-2.14.897-3.05.186-.29.487-.52.84-.7 2.071-1.04 4.586-1.19 6.881-1.2.93-.01 1.96.15 2.88-.1.98-.27.65-.96.07-1.56-.52-.53-1.12-1.07-1.89-1.27-.96-.23-2.05.02-2.994.19-.362.07-2.079.65-1.687-.08.652-1.2 1.489-2.31 2.461-3.29.49-.49 1-.82.65-1.68S25.492.42 24.614.16c-.467-.14-.978-.2-1.46-.1-.428.09-.902.4-1.099.78-.149.28.044.39.334.51.506.22.347.79.191 1.21a18.383 18.383 0 0 1-1.736 3.54c-.764 1.2-1.288 2.59-2.715 3.27-.31.15-.759.52-.895.42-.315-.21.082-.72.174-.99.324-.93.941-1.74 1.39-2.61.291-.57.487-1.18.495-1.82.003-.22.124-.75-.08-.91-.247-.2-.467.12-.572.35-.35.76-.992 1.45-1.665 1.68-.365.12-.696-.34-.891-.57-.475-.55-1.25-1.5-2.03-1.62-.659-.11-.582.75-.696 1.19-.52 2.01-.805 4.52 1.465 5.54.781.35.294.69-.242.96-3.485 1.76-6.957 3.55-10.423 5.35-.147.07-.583.28-.224.5 1.278.75 2.081 2.17 3.698 2.46.451.09.642.12.977-.33 1.281-1.72 2.795-2.91 4.641-4.06.376-.24.739-.48 1.103-.73.334-.23 1.551-1.3 1.847-1.11.368.24.116.9.011 1.2a.201.201 0 0 1-.042.07c-1.259 4.02-2.439 8.05-2.884 12.27-.262 2.49.052 3.52 2.391 4.54.781.34-.354.44-.626.42-1.131-.1-2.266-.14-3.401-.17-.261 0-2.036.14-1.757-.27 1.108-1.62-.086-2.41-1.248-2.9-1.315-.57-1.372-1.26-.988-2.42.477-1.42-.001-2.43-1.161-2.89-1.593-.63-3.252-.31-4.881-.28-.728.01-.023.92.148 1.21.219.36 1.016 1.61 1.549 1.55.18-.01.672-.01.868 0 .334.01.723.06.931.35.37.52.409 1.18.595 1.79.182.59 1.058 1.2.996 1.8-.133 1.28-2.557 2.26-3.584 2.6-.732.24-1.851-.11-2.103.82-.264.97 1.022 1.16 1.476 1.81.057.08.147.14.215.22.496.54 1.018.71 1.83.56 2.413-.43 4.685-1.51 7.313-1 2.259.45 4.575.75 6.747 1.44 3.747 1.19 7.534 2.22 11.354 3.11 1.37.32 2.73-.18 3.97-.71 2.57-1.1 5.27-1.88 7.84-2.98.59-.25 1.57-.52 2.02-.97.39-.38.23-.73-.3-.73zM17.848 18.39c.023-.08.046-.19.074-.32.128-.64.333-1.75.847-1.69.177.03.325.07.514.14.099.03.198.05.296.06.642.09 1.26-.38 1.739-.73.32-.24 1.011-1.08 1.393-1.08.7 0 .573 2.35.59 2.81.015.42.13.76-.671.54a7.63 7.63 0 0 0-.808-.19c-.472-.09-.908.12-1.344.26-.291.1-2.572.92-2.668.53-.027-.11.005-.22.038-.33zm-.669 5.92c.243-.27.449-.18.664.04.369.37.488.59 1.007.36a12.14 12.14 0 0 1 1.535-.6c.598-.18 1.219-.15 1.826-.28.345-.06.603-.33.529-.7-.137-.68-1.042-.98-1.652-1.08-.948-.16-1.883.18-2.757.5-.451.16-1.082.57-1.13-.09-.046-.61.097-1.35.457-1.86.391-.56.523-.11.96.05.251.09.486.14.709.15.192-.01.385-.06.578-.1.943-.24 1.787-.9 2.602-1.39.242-.15.363-.6.683-.44.429.22.259 1.46.268 1.83.028 1.23.021 2.46.101 3.68.035.53.172 1.05.13 1.59-.059.75-.819.53-1.314.4-.869-.22-1.808.13-2.653.35-.657.18-1.31.54-1.976.64-.622.09-.63-.18-.655-.69-.023-.49-.025-.97-.01-1.46.007-.21-.056-.72.098-.9zM3.006 9.66c.685.69 1.042 1.44-.06 1.99-.904.46.297.66.306.66 1.126.15 4.088.69 3.993-1.24-.038-.76-.472-1.26-.968-1.77C5.203 8.21 4.083 8.44 2.539 8c-.157-.07-.896-.35-.552.39.242.52.633.89 1.019 1.27z"/>
</symbol><symbol id="icon-like" viewBox="0 0 34 32.98397267572">
    <title>
        Shape 43
    </title>
    
    <path d="M16.005 8.392v-4.47c.58-.04 1.485-.04 2.103.43.657.46.966 1.44.966 2.84v6.77h8.618c1.314 0 2.396 1.09 2.396 2.41v.04l-1.816 11v.04c-.077.63-.309 2.53-3.208 2.53H12.386c-1.314 0-2.396-1.09-2.396-2.41l.015-11.51c.27-.11 6-1.94 6-7.67zM3.004 29.972h4.001v-14.99H3.004z"/>
    <path d="M500.005 5006.4v-4.47c.58-.04 1.485-.04 2.103.43.657.46.966 1.44.966 2.84v6.77h8.618c1.314 0 2.396 1.09 2.396 2.41v.04l-1.816 11v.04c-.077.63-.309 2.53-3.208 2.53h-12.678c-1.314 0-2.396-1.09-2.396-2.41l.015-11.51c.27-.11 6-1.94 6-7.67zm-13.001 21.58h4.001v-14.99h-4.001z" stroke-dasharray="0" stroke-linejoin="round" stroke-linecap="round" stroke-miterlimit="50" stroke-width="6" clip-path="url(&quot;#a&quot;)" transform="translate(-484 -4998.008)"/>
</symbol><symbol id="icon-star" viewBox="0 0 36 32">
    <title>
        Shape 44
    </title>
    
    <path d="M34.95 12.15c-.16-.54-.65-.89-1.22-.93l-10.67-.89L19.21.85C19.02.31 18.53 0 17.99 0c-.53 0-1.03.35-1.22.85l-3.84 9.48-10.67.85c-.57 0-1.03.39-1.22.93-.15.54 0 1.12.46 1.47l8.25 6.32-2.77 10.36c-.15.54.04 1.12.46 1.43.42.35 1.03.35 1.49.04l9.06-5.95 8.99 5.99c.23.15.46.23.73.23.26 0 .53-.08.76-.27.46-.35.65-.93.46-1.43L26.2 19.94l8.29-6.32c.42-.35.61-.93.46-1.47z"/>
    <path d="M1116.95 5012.15c-.16-.54-.65-.89-1.22-.93l-10.67-.89-3.85-9.48c-.19-.54-.68-.85-1.22-.85-.53 0-1.03.35-1.22.85l-3.84 9.48-10.67.85c-.57 0-1.03.39-1.22.93-.15.54 0 1.12.46 1.47l8.25 6.32-2.77 10.36c-.15.54.04 1.12.46 1.43.42.35 1.03.35 1.49.04l9.06-5.95 8.99 5.99c.23.15.46.23.73.23.26 0 .53-.08.76-.27.46-.35.65-.93.46-1.43l-2.73-10.36 8.29-6.32c.42-.35.61-.93.46-1.47z" stroke-dasharray="0" stroke-miterlimit="50" stroke-width="6" clip-path="url(&quot;#a&quot;)" transform="translate(-1082 -5000)"/>
</symbol></svg>