<svg id="SvgjsSvg1011" xmlns="http://www.w3.org/2000/svg" version="1.1" xmlns:xlink="http://www.w3.org/1999/xlink" xmlns:svgjs="http://svgjs.com/svgjs" width="33" height="29" viewBox="0 0 33 29"><title>Shape 42</title><desc>Created with Avocode.</desc><defs id="SvgjsDefs1012"><clipPath id="SvgjsClipPath1016"><path id="SvgjsPath1015" d="M804.08 5007.83L803.436 5008.43L802.793 5007.79C799.337 5004.32 793.71 5004.32 790.253 5007.79C788.565 5009.48 787.64 5011.69 787.64 5014.07C787.64 5016.45 788.5649999999999 5018.66 790.253 5020.349999999999L802.552 5032.669999999999L803.436 5033.5199999999995L816.58 5020.349999999999C820.0360000000001 5016.889999999999 820.0360000000001 5011.249999999999 816.58 5007.789999999999C813.163 5004.369999999999 807.5360000000001 5004.369999999999 804.08 5007.829999999999Z " fill="#ffffff"></path></clipPath></defs><path id="SvgjsPath1013" d="M804.08 5007.83L803.436 5008.43L802.793 5007.79C799.337 5004.32 793.71 5004.32 790.253 5007.79C788.565 5009.48 787.64 5011.69 787.64 5014.07C787.64 5016.45 788.5649999999999 5018.66 790.253 5020.349999999999L802.552 5032.669999999999L803.436 5033.5199999999995L816.58 5020.349999999999C820.0360000000001 5016.889999999999 820.0360000000001 5011.249999999999 816.58 5007.789999999999C813.163 5004.369999999999 807.5360000000001 5004.369999999999 804.08 5007.829999999999Z " fill="#a1adb7" fill-opacity="0" transform="matrix(1,0,0,1,-787,-5005)"></path><path id="SvgjsPath1014" d="M804.08 5007.83L803.436 5008.43L802.793 5007.79C799.337 5004.32 793.71 5004.32 790.253 5007.79C788.565 5009.48 787.64 5011.69 787.64 5014.07C787.64 5016.45 788.5649999999999 5018.66 790.253 5020.349999999999L802.552 5032.669999999999L803.436 5033.5199999999995L816.58 5020.349999999999C820.0360000000001 5016.889999999999 820.0360000000001 5011.249999999999 816.58 5007.789999999999C813.163 5004.369999999999 807.5360000000001 5004.369999999999 804.08 5007.829999999999Z " fill-opacity="0" fill="#ffffff" stroke-dasharray="0" stroke-linejoin="miter" stroke-linecap="butt" stroke-opacity="1" stroke="#a1adb7" stroke-miterlimit="50" stroke-width="6" clip-path="url(&quot;#SvgjsClipPath1016&quot;)" transform="matrix(1,0,0,1,-787,-5005)"></path></svg>